<svg width="194" height="175" viewBox="0 0 194 175" fill="none" xmlns="http://www.w3.org/2000/svg">
<g clip-path="url(#clip0_2_12)">
<rect width="194" height="175" fill="white"/>
<path d="M30.432 97L13.728 26.92H32.16L44.736 85L41.76 82.792H49.536L46.176 85L55.68 29.416H70.176L57.024 97H30.432ZM72.096 97L57.984 29.416H73.248L84.384 85L81.024 82.792H88.32L85.824 85L96.672 26.92H113.952L99.264 97H72.096ZM138.728 78.376V63.016H150.248C152.424 63.016 154.312 62.6 155.912 61.768C157.512 60.872 158.76 59.624 159.656 58.024C160.552 56.424 161 54.536 161 52.36C161 50.12 160.552 48.2 159.656 46.6C158.76 45 157.512 43.784 155.912 42.952C154.312 42.12 152.424 41.704 150.248 41.704H138.728V26.344H149.768C155.784 26.344 160.968 27.368 165.32 29.416C169.736 31.4 173.128 34.28 175.496 38.056C177.864 41.832 179.048 46.344 179.048 51.592V53.128C179.048 58.312 177.864 62.792 175.496 66.568C173.128 70.344 169.736 73.256 165.32 75.304C160.968 77.352 155.784 78.376 149.768 78.376H138.728ZM122.792 97V26.344H140.648V97H122.792Z" fill="#BE185D"/>
<path d="M30.432 90L13.728 19.92H32.16L44.736 78L41.76 75.792H49.536L46.176 78L55.68 22.416H70.176L57.024 90H30.432ZM72.096 90L57.984 22.416H73.248L84.384 78L81.024 75.792H88.32L85.824 78L96.672 19.92H113.952L99.264 90H72.096ZM138.728 71.376V56.016H150.248C152.424 56.016 154.312 55.6 155.912 54.768C157.512 53.872 158.76 52.624 159.656 51.024C160.552 49.424 161 47.536 161 45.36C161 43.12 160.552 41.2 159.656 39.6C158.76 38 157.512 36.784 155.912 35.952C154.312 35.12 152.424 34.704 150.248 34.704H138.728V19.344H149.768C155.784 19.344 160.968 20.368 165.32 22.416C169.736 24.4 173.128 27.28 175.496 31.056C177.864 34.832 179.048 39.344 179.048 44.592V46.128C179.048 51.312 177.864 55.792 175.496 59.568C173.128 63.344 169.736 66.256 165.32 68.304C160.968 70.352 155.784 71.376 149.768 71.376H138.728ZM122.792 90V19.344H140.648V90H122.792Z" fill="#261578"/>
<path d="M14.65 160V141.2H18.25V147.15H17.85C17.9 145.8 18.1667 144.65 18.65 143.7C19.15 142.75 19.825 142.033 20.675 141.55C21.525 141.05 22.5 140.8 23.6 140.8C24.55 140.8 25.4083 140.975 26.175 141.325C26.9417 141.658 27.6 142.142 28.15 142.775C28.7 143.392 29.1167 144.125 29.4 144.975C29.7 145.825 29.85 146.758 29.85 147.775V148.375C29.85 149.392 29.7167 150.333 29.45 151.2C29.1833 152.05 28.7833 152.8 28.25 153.45C27.7167 154.083 27.0583 154.575 26.275 154.925C25.5083 155.275 24.625 155.45 23.625 155.45C22.5583 155.45 21.6167 155.242 20.8 154.825C19.9833 154.392 19.3333 153.75 18.85 152.9C18.3833 152.033 18.1333 150.95 18.1 149.65L19.2 151V160H14.65ZM22.25 151.7C22.85 151.7 23.375 151.55 23.825 151.25C24.2917 150.933 24.65 150.5 24.9 149.95C25.1667 149.4 25.3 148.775 25.3 148.075C25.3 147.358 25.1667 146.742 24.9 146.225C24.65 145.692 24.3 145.283 23.85 145C23.4 144.7 22.8667 144.55 22.25 144.55C21.7 144.55 21.1833 144.675 20.7 144.925C20.2333 145.175 19.85 145.542 19.55 146.025C19.25 146.508 19.1 147.092 19.1 147.775V148.625C19.1 149.275 19.2583 149.833 19.575 150.3C19.8917 150.75 20.2917 151.1 20.775 151.35C21.2583 151.583 21.75 151.7 22.25 151.7ZM38.8252 155.5C37.6585 155.5 36.6252 155.3 35.7252 154.9C34.8252 154.5 34.0669 153.958 33.4502 153.275C32.8335 152.592 32.3585 151.825 32.0252 150.975C31.7085 150.125 31.5502 149.25 31.5502 148.35V147.85C31.5502 146.917 31.7085 146.025 32.0252 145.175C32.3585 144.308 32.8252 143.542 33.4252 142.875C34.0419 142.208 34.7919 141.683 35.6752 141.3C36.5585 140.9 37.5585 140.7 38.6752 140.7C40.1585 140.7 41.4169 141.033 42.4502 141.7C43.4835 142.367 44.2752 143.25 44.8252 144.35C45.3752 145.433 45.6502 146.617 45.6502 147.9V149.35H33.4502V146.9H43.0252L41.4502 148C41.4502 147.217 41.3419 146.558 41.1252 146.025C40.9252 145.475 40.6169 145.058 40.2002 144.775C39.8002 144.492 39.2919 144.35 38.6752 144.35C38.0752 144.35 37.5502 144.492 37.1002 144.775C36.6669 145.042 36.3335 145.458 36.1002 146.025C35.8669 146.575 35.7502 147.275 35.7502 148.125C35.7502 148.892 35.8585 149.558 36.0752 150.125C36.2919 150.675 36.6252 151.1 37.0752 151.4C37.5252 151.7 38.1085 151.85 38.8252 151.85C39.4585 151.85 39.9752 151.742 40.3752 151.525C40.7919 151.308 41.0835 151.017 41.2502 150.65H45.4002C45.2002 151.583 44.8002 152.417 44.2002 153.15C43.6169 153.883 42.8669 154.458 41.9502 154.875C41.0502 155.292 40.0085 155.5 38.8252 155.5ZM48.0484 155V141.2H51.6484V147.2H51.5984C51.5984 145.267 51.9984 143.75 52.7984 142.65C53.6151 141.55 54.7818 141 56.2984 141H56.8484V144.9H55.7984C54.7818 144.9 53.9901 145.175 53.4234 145.725C52.8734 146.275 52.5984 147.067 52.5984 148.1V155H48.0484ZM59.0418 155V141.25C59.0418 139.633 59.5085 138.433 60.4418 137.65C61.3751 136.85 62.7585 136.45 64.5918 136.45H66.3668V139.8H64.4918C64.0918 139.8 63.7835 139.908 63.5668 140.125C63.3501 140.342 63.2418 140.65 63.2418 141.05V155H59.0418ZM57.4918 144.8V141.5H66.5668V144.8H57.4918ZM75.1383 155.5C73.9216 155.5 72.8383 155.317 71.8883 154.95C70.9383 154.583 70.1299 154.075 69.4633 153.425C68.8133 152.775 68.3133 152.025 67.9633 151.175C67.6299 150.325 67.4633 149.417 67.4633 148.45V147.85C67.4633 146.85 67.6383 145.917 67.9883 145.05C68.3549 144.183 68.8716 143.425 69.5383 142.775C70.2049 142.125 71.0133 141.617 71.9633 141.25C72.9133 140.883 73.9716 140.7 75.1383 140.7C76.3216 140.7 77.3799 140.883 78.3133 141.25C79.2633 141.617 80.0716 142.125 80.7383 142.775C81.4049 143.425 81.9133 144.183 82.2633 145.05C82.6299 145.917 82.8133 146.85 82.8133 147.85V148.45C82.8133 149.417 82.6383 150.325 82.2883 151.175C81.9549 152.025 81.4549 152.775 80.7883 153.425C80.1383 154.075 79.3383 154.583 78.3883 154.95C77.4383 155.317 76.3549 155.5 75.1383 155.5ZM75.1383 151.7C75.8383 151.7 76.4133 151.55 76.8633 151.25C77.3299 150.95 77.6799 150.533 77.9133 150C78.1466 149.45 78.2633 148.833 78.2633 148.15C78.2633 147.433 78.1383 146.808 77.8883 146.275C77.6549 145.725 77.3049 145.292 76.8383 144.975C76.3716 144.658 75.8049 144.5 75.1383 144.5C74.4716 144.5 73.9049 144.658 73.4383 144.975C72.9716 145.292 72.6133 145.725 72.3633 146.275C72.1299 146.808 72.0133 147.433 72.0133 148.15C72.0133 148.833 72.1299 149.45 72.3633 150C72.5966 150.533 72.9466 150.95 73.4133 151.25C73.8799 151.55 74.4549 151.7 75.1383 151.7ZM85.3043 155V141.2H88.9043V147.2H88.8543C88.8543 145.267 89.2543 143.75 90.0543 142.65C90.871 141.55 92.0376 141 93.5543 141H94.1043V144.9H93.0543C92.0376 144.9 91.246 145.175 90.6793 145.725C90.1293 146.275 89.8543 147.067 89.8543 148.1V155H85.3043ZM95.9 155V141.2H99.5V147.15H99.3C99.3 145.717 99.475 144.533 99.825 143.6C100.192 142.65 100.725 141.942 101.425 141.475C102.125 140.992 102.983 140.75 104 140.75H104.2C105.233 140.75 106.092 140.992 106.775 141.475C107.475 141.942 108 142.65 108.35 143.6C108.717 144.533 108.9 145.717 108.9 147.15H107.85C107.85 145.717 108.025 144.533 108.375 143.6C108.742 142.65 109.275 141.942 109.975 141.475C110.675 140.992 111.533 140.75 112.55 140.75H112.75C113.783 140.75 114.65 140.992 115.35 141.475C116.067 141.942 116.608 142.65 116.975 143.6C117.358 144.533 117.55 145.717 117.55 147.15V155H113V147.025C113 146.392 112.825 145.867 112.475 145.45C112.142 145.017 111.658 144.8 111.025 144.8C110.392 144.8 109.892 145.017 109.525 145.45C109.175 145.867 109 146.408 109 147.075V155H104.45V147.025C104.45 146.392 104.275 145.867 103.925 145.45C103.592 145.017 103.108 144.8 102.475 144.8C101.842 144.8 101.342 145.017 100.975 145.45C100.625 145.867 100.45 146.408 100.45 147.075V155H95.9ZM128.957 155V150.95H128.207V146.625C128.207 145.992 128.057 145.525 127.757 145.225C127.474 144.908 126.999 144.75 126.332 144.75C126.015 144.75 125.549 144.758 124.932 144.775C124.315 144.792 123.665 144.817 122.982 144.85C122.299 144.883 121.674 144.917 121.107 144.95V141.15C121.507 141.117 121.982 141.083 122.532 141.05C123.082 141.017 123.649 140.992 124.232 140.975C124.832 140.958 125.382 140.95 125.882 140.95C127.299 140.95 128.499 141.158 129.482 141.575C130.482 141.992 131.24 142.617 131.757 143.45C132.29 144.283 132.557 145.342 132.557 146.625V155H128.957ZM124.582 155.35C123.615 155.35 122.757 155.175 122.007 154.825C121.257 154.475 120.665 153.975 120.232 153.325C119.815 152.658 119.607 151.867 119.607 150.95C119.607 149.917 119.882 149.083 120.432 148.45C120.982 147.8 121.74 147.325 122.707 147.025C123.674 146.725 124.782 146.575 126.032 146.575H128.707V148.925H126.032C125.415 148.925 124.94 149.083 124.607 149.4C124.274 149.7 124.107 150.108 124.107 150.625C124.107 151.125 124.274 151.533 124.607 151.85C124.94 152.15 125.415 152.3 126.032 152.3C126.432 152.3 126.782 152.233 127.082 152.1C127.399 151.95 127.657 151.7 127.857 151.35C128.057 151 128.174 150.517 128.207 149.9L129.257 150.9C129.174 151.85 128.94 152.658 128.557 153.325C128.19 153.975 127.674 154.475 127.007 154.825C126.357 155.175 125.549 155.35 124.582 155.35ZM135.597 155V141.2H139.197V147.125H138.997C138.997 145.692 139.181 144.508 139.547 143.575C139.914 142.625 140.456 141.917 141.172 141.45C141.906 140.983 142.789 140.75 143.822 140.75H144.022C145.589 140.75 146.797 141.275 147.647 142.325C148.514 143.358 148.947 144.95 148.947 147.1V155H144.397V146.975C144.397 146.342 144.206 145.825 143.822 145.425C143.456 145.008 142.947 144.8 142.297 144.8C141.647 144.8 141.122 145.008 140.722 145.425C140.339 145.825 140.147 146.358 140.147 147.025V155H135.597ZM158.304 155.5C157.104 155.5 156.062 155.308 155.179 154.925C154.295 154.525 153.554 153.992 152.954 153.325C152.37 152.658 151.929 151.9 151.629 151.05C151.345 150.2 151.204 149.317 151.204 148.4V147.9C151.204 146.933 151.354 146.017 151.654 145.15C151.97 144.283 152.429 143.517 153.029 142.85C153.629 142.183 154.37 141.658 155.254 141.275C156.137 140.892 157.154 140.7 158.304 140.7C159.57 140.7 160.687 140.95 161.654 141.45C162.62 141.95 163.387 142.642 163.954 143.525C164.537 144.392 164.862 145.392 164.929 146.525H160.479C160.429 145.975 160.22 145.508 159.854 145.125C159.504 144.742 158.987 144.55 158.304 144.55C157.72 144.55 157.237 144.7 156.854 145C156.487 145.3 156.212 145.717 156.029 146.25C155.845 146.783 155.754 147.417 155.754 148.15C155.754 148.833 155.829 149.442 155.979 149.975C156.145 150.508 156.412 150.925 156.779 151.225C157.162 151.508 157.67 151.65 158.304 151.65C158.77 151.65 159.162 151.567 159.479 151.4C159.795 151.233 160.045 151 160.229 150.7C160.412 150.383 160.529 150.017 160.579 149.6H165.029C164.962 150.767 164.629 151.792 164.029 152.675C163.445 153.558 162.662 154.25 161.679 154.75C160.695 155.25 159.57 155.5 158.304 155.5ZM173.811 155.5C172.644 155.5 171.611 155.3 170.711 154.9C169.811 154.5 169.052 153.958 168.436 153.275C167.819 152.592 167.344 151.825 167.011 150.975C166.694 150.125 166.536 149.25 166.536 148.35V147.85C166.536 146.917 166.694 146.025 167.011 145.175C167.344 144.308 167.811 143.542 168.411 142.875C169.027 142.208 169.777 141.683 170.661 141.3C171.544 140.9 172.544 140.7 173.661 140.7C175.144 140.7 176.402 141.033 177.436 141.7C178.469 142.367 179.261 143.25 179.811 144.35C180.361 145.433 180.636 146.617 180.636 147.9V149.35H168.436V146.9H178.011L176.436 148C176.436 147.217 176.327 146.558 176.111 146.025C175.911 145.475 175.602 145.058 175.186 144.775C174.786 144.492 174.277 144.35 173.661 144.35C173.061 144.35 172.536 144.492 172.086 144.775C171.652 145.042 171.319 145.458 171.086 146.025C170.852 146.575 170.736 147.275 170.736 148.125C170.736 148.892 170.844 149.558 171.061 150.125C171.277 150.675 171.611 151.1 172.061 151.4C172.511 151.7 173.094 151.85 173.811 151.85C174.444 151.85 174.961 151.742 175.361 151.525C175.777 151.308 176.069 151.017 176.236 150.65H180.386C180.186 151.583 179.786 152.417 179.186 153.15C178.602 153.883 177.852 154.458 176.936 154.875C176.036 155.292 174.994 155.5 173.811 155.5Z" fill="#BE185D"/>
<path d="M14.65 159V140.2H18.25V146.15H17.85C17.9 144.8 18.1667 143.65 18.65 142.7C19.15 141.75 19.825 141.033 20.675 140.55C21.525 140.05 22.5 139.8 23.6 139.8C24.55 139.8 25.4083 139.975 26.175 140.325C26.9417 140.658 27.6 141.142 28.15 141.775C28.7 142.392 29.1167 143.125 29.4 143.975C29.7 144.825 29.85 145.758 29.85 146.775V147.375C29.85 148.392 29.7167 149.333 29.45 150.2C29.1833 151.05 28.7833 151.8 28.25 152.45C27.7167 153.083 27.0583 153.575 26.275 153.925C25.5083 154.275 24.625 154.45 23.625 154.45C22.5583 154.45 21.6167 154.242 20.8 153.825C19.9833 153.392 19.3333 152.75 18.85 151.9C18.3833 151.033 18.1333 149.95 18.1 148.65L19.2 150V159H14.65ZM22.25 150.7C22.85 150.7 23.375 150.55 23.825 150.25C24.2917 149.933 24.65 149.5 24.9 148.95C25.1667 148.4 25.3 147.775 25.3 147.075C25.3 146.358 25.1667 145.742 24.9 145.225C24.65 144.692 24.3 144.283 23.85 144C23.4 143.7 22.8667 143.55 22.25 143.55C21.7 143.55 21.1833 143.675 20.7 143.925C20.2333 144.175 19.85 144.542 19.55 145.025C19.25 145.508 19.1 146.092 19.1 146.775V147.625C19.1 148.275 19.2583 148.833 19.575 149.3C19.8917 149.75 20.2917 150.1 20.775 150.35C21.2583 150.583 21.75 150.7 22.25 150.7ZM38.8252 154.5C37.6585 154.5 36.6252 154.3 35.7252 153.9C34.8252 153.5 34.0669 152.958 33.4502 152.275C32.8335 151.592 32.3585 150.825 32.0252 149.975C31.7085 149.125 31.5502 148.25 31.5502 147.35V146.85C31.5502 145.917 31.7085 145.025 32.0252 144.175C32.3585 143.308 32.8252 142.542 33.4252 141.875C34.0419 141.208 34.7919 140.683 35.6752 140.3C36.5585 139.9 37.5585 139.7 38.6752 139.7C40.1585 139.7 41.4169 140.033 42.4502 140.7C43.4835 141.367 44.2752 142.25 44.8252 143.35C45.3752 144.433 45.6502 145.617 45.6502 146.9V148.35H33.4502V145.9H43.0252L41.4502 147C41.4502 146.217 41.3419 145.558 41.1252 145.025C40.9252 144.475 40.6169 144.058 40.2002 143.775C39.8002 143.492 39.2919 143.35 38.6752 143.35C38.0752 143.35 37.5502 143.492 37.1002 143.775C36.6669 144.042 36.3335 144.458 36.1002 145.025C35.8669 145.575 35.7502 146.275 35.7502 147.125C35.7502 147.892 35.8585 148.558 36.0752 149.125C36.2919 149.675 36.6252 150.1 37.0752 150.4C37.5252 150.7 38.1085 150.85 38.8252 150.85C39.4585 150.85 39.9752 150.742 40.3752 150.525C40.7919 150.308 41.0835 150.017 41.2502 149.65H45.4002C45.2002 150.583 44.8002 151.417 44.2002 152.15C43.6169 152.883 42.8669 153.458 41.9502 153.875C41.0502 154.292 40.0085 154.5 38.8252 154.5ZM48.0484 154V140.2H51.6484V146.2H51.5984C51.5984 144.267 51.9984 142.75 52.7984 141.65C53.6151 140.55 54.7818 140 56.2984 140H56.8484V143.9H55.7984C54.7818 143.9 53.9901 144.175 53.4234 144.725C52.8734 145.275 52.5984 146.067 52.5984 147.1V154H48.0484ZM59.0418 154V140.25C59.0418 138.633 59.5085 137.433 60.4418 136.65C61.3751 135.85 62.7585 135.45 64.5918 135.45H66.3668V138.8H64.4918C64.0918 138.8 63.7835 138.908 63.5668 139.125C63.3501 139.342 63.2418 139.65 63.2418 140.05V154H59.0418ZM57.4918 143.8V140.5H66.5668V143.8H57.4918ZM75.1383 154.5C73.9216 154.5 72.8383 154.317 71.8883 153.95C70.9383 153.583 70.1299 153.075 69.4633 152.425C68.8133 151.775 68.3133 151.025 67.9633 150.175C67.6299 149.325 67.4633 148.417 67.4633 147.45V146.85C67.4633 145.85 67.6383 144.917 67.9883 144.05C68.3549 143.183 68.8716 142.425 69.5383 141.775C70.2049 141.125 71.0133 140.617 71.9633 140.25C72.9133 139.883 73.9716 139.7 75.1383 139.7C76.3216 139.7 77.3799 139.883 78.3133 140.25C79.2633 140.617 80.0716 141.125 80.7383 141.775C81.4049 142.425 81.9133 143.183 82.2633 144.05C82.6299 144.917 82.8133 145.85 82.8133 146.85V147.45C82.8133 148.417 82.6383 149.325 82.2883 150.175C81.9549 151.025 81.4549 151.775 80.7883 152.425C80.1383 153.075 79.3383 153.583 78.3883 153.95C77.4383 154.317 76.3549 154.5 75.1383 154.5ZM75.1383 150.7C75.8383 150.7 76.4133 150.55 76.8633 150.25C77.3299 149.95 77.6799 149.533 77.9133 149C78.1466 148.45 78.2633 147.833 78.2633 147.15C78.2633 146.433 78.1383 145.808 77.8883 145.275C77.6549 144.725 77.3049 144.292 76.8383 143.975C76.3716 143.658 75.8049 143.5 75.1383 143.5C74.4716 143.5 73.9049 143.658 73.4383 143.975C72.9716 144.292 72.6133 144.725 72.3633 145.275C72.1299 145.808 72.0133 146.433 72.0133 147.15C72.0133 147.833 72.1299 148.45 72.3633 149C72.5966 149.533 72.9466 149.95 73.4133 150.25C73.8799 150.55 74.4549 150.7 75.1383 150.7ZM85.3043 154V140.2H88.9043V146.2H88.8543C88.8543 144.267 89.2543 142.75 90.0543 141.65C90.871 140.55 92.0376 140 93.5543 140H94.1043V143.9H93.0543C92.0376 143.9 91.246 144.175 90.6793 144.725C90.1293 145.275 89.8543 146.067 89.8543 147.1V154H85.3043ZM95.9 154V140.2H99.5V146.15H99.3C99.3 144.717 99.475 143.533 99.825 142.6C100.192 141.65 100.725 140.942 101.425 140.475C102.125 139.992 102.983 139.75 104 139.75H104.2C105.233 139.75 106.092 139.992 106.775 140.475C107.475 140.942 108 141.65 108.35 142.6C108.717 143.533 108.9 144.717 108.9 146.15H107.85C107.85 144.717 108.025 143.533 108.375 142.6C108.742 141.65 109.275 140.942 109.975 140.475C110.675 139.992 111.533 139.75 112.55 139.75H112.75C113.783 139.75 114.65 139.992 115.35 140.475C116.067 140.942 116.608 141.65 116.975 142.6C117.358 143.533 117.55 144.717 117.55 146.15V154H113V146.025C113 145.392 112.825 144.867 112.475 144.45C112.142 144.017 111.658 143.8 111.025 143.8C110.392 143.8 109.892 144.017 109.525 144.45C109.175 144.867 109 145.408 109 146.075V154H104.45V146.025C104.45 145.392 104.275 144.867 103.925 144.45C103.592 144.017 103.108 143.8 102.475 143.8C101.842 143.8 101.342 144.017 100.975 144.45C100.625 144.867 100.45 145.408 100.45 146.075V154H95.9ZM128.957 154V149.95H128.207V145.625C128.207 144.992 128.057 144.525 127.757 144.225C127.474 143.908 126.999 143.75 126.332 143.75C126.015 143.75 125.549 143.758 124.932 143.775C124.315 143.792 123.665 143.817 122.982 143.85C122.299 143.883 121.674 143.917 121.107 143.95V140.15C121.507 140.117 121.982 140.083 122.532 140.05C123.082 140.017 123.649 139.992 124.232 139.975C124.832 139.958 125.382 139.95 125.882 139.95C127.299 139.95 128.499 140.158 129.482 140.575C130.482 140.992 131.24 141.617 131.757 142.45C132.29 143.283 132.557 144.342 132.557 145.625V154H128.957ZM124.582 154.35C123.615 154.35 122.757 154.175 122.007 153.825C121.257 153.475 120.665 152.975 120.232 152.325C119.815 151.658 119.607 150.867 119.607 149.95C119.607 148.917 119.882 148.083 120.432 147.45C120.982 146.8 121.74 146.325 122.707 146.025C123.674 145.725 124.782 145.575 126.032 145.575H128.707V147.925H126.032C125.415 147.925 124.94 148.083 124.607 148.4C124.274 148.7 124.107 149.108 124.107 149.625C124.107 150.125 124.274 150.533 124.607 150.85C124.94 151.15 125.415 151.3 126.032 151.3C126.432 151.3 126.782 151.233 127.082 151.1C127.399 150.95 127.657 150.7 127.857 150.35C128.057 150 128.174 149.517 128.207 148.9L129.257 149.9C129.174 150.85 128.94 151.658 128.557 152.325C128.19 152.975 127.674 153.475 127.007 153.825C126.357 154.175 125.549 154.35 124.582 154.35ZM135.597 154V140.2H139.197V146.125H138.997C138.997 144.692 139.181 143.508 139.547 142.575C139.914 141.625 140.456 140.917 141.172 140.45C141.906 139.983 142.789 139.75 143.822 139.75H144.022C145.589 139.75 146.797 140.275 147.647 141.325C148.514 142.358 148.947 143.95 148.947 146.1V154H144.397V145.975C144.397 145.342 144.206 144.825 143.822 144.425C143.456 144.008 142.947 143.8 142.297 143.8C141.647 143.8 141.122 144.008 140.722 144.425C140.339 144.825 140.147 145.358 140.147 146.025V154H135.597ZM158.304 154.5C157.104 154.5 156.062 154.308 155.179 153.925C154.295 153.525 153.554 152.992 152.954 152.325C152.37 151.658 151.929 150.9 151.629 150.05C151.345 149.2 151.204 148.317 151.204 147.4V146.9C151.204 145.933 151.354 145.017 151.654 144.15C151.97 143.283 152.429 142.517 153.029 141.85C153.629 141.183 154.37 140.658 155.254 140.275C156.137 139.892 157.154 139.7 158.304 139.7C159.57 139.7 160.687 139.95 161.654 140.45C162.62 140.95 163.387 141.642 163.954 142.525C164.537 143.392 164.862 144.392 164.929 145.525H160.479C160.429 144.975 160.22 144.508 159.854 144.125C159.504 143.742 158.987 143.55 158.304 143.55C157.72 143.55 157.237 143.7 156.854 144C156.487 144.3 156.212 144.717 156.029 145.25C155.845 145.783 155.754 146.417 155.754 147.15C155.754 147.833 155.829 148.442 155.979 148.975C156.145 149.508 156.412 149.925 156.779 150.225C157.162 150.508 157.67 150.65 158.304 150.65C158.77 150.65 159.162 150.567 159.479 150.4C159.795 150.233 160.045 150 160.229 149.7C160.412 149.383 160.529 149.017 160.579 148.6H165.029C164.962 149.767 164.629 150.792 164.029 151.675C163.445 152.558 162.662 153.25 161.679 153.75C160.695 154.25 159.57 154.5 158.304 154.5ZM173.811 154.5C172.644 154.5 171.611 154.3 170.711 153.9C169.811 153.5 169.052 152.958 168.436 152.275C167.819 151.592 167.344 150.825 167.011 149.975C166.694 149.125 166.536 148.25 166.536 147.35V146.85C166.536 145.917 166.694 145.025 167.011 144.175C167.344 143.308 167.811 142.542 168.411 141.875C169.027 141.208 169.777 140.683 170.661 140.3C171.544 139.9 172.544 139.7 173.661 139.7C175.144 139.7 176.402 140.033 177.436 140.7C178.469 141.367 179.261 142.25 179.811 143.35C180.361 144.433 180.636 145.617 180.636 146.9V148.35H168.436V145.9H178.011L176.436 147C176.436 146.217 176.327 145.558 176.111 145.025C175.911 144.475 175.602 144.058 175.186 143.775C174.786 143.492 174.277 143.35 173.661 143.35C173.061 143.35 172.536 143.492 172.086 143.775C171.652 144.042 171.319 144.458 171.086 145.025C170.852 145.575 170.736 146.275 170.736 147.125C170.736 147.892 170.844 148.558 171.061 149.125C171.277 149.675 171.611 150.1 172.061 150.4C172.511 150.7 173.094 150.85 173.811 150.85C174.444 150.85 174.961 150.742 175.361 150.525C175.777 150.308 176.069 150.017 176.236 149.65H180.386C180.186 150.583 179.786 151.417 179.186 152.15C178.602 152.883 177.852 153.458 176.936 153.875C176.036 154.292 174.994 154.5 173.811 154.5Z" fill="#261578"/>
<line x1="12" y1="119.5" x2="181" y2="119.5" stroke="#BE185D" stroke-width="7"/>
<line x1="12" y1="115.5" x2="181" y2="115.5" stroke="#261578" stroke-width="7"/>
</g>
<defs>
<clipPath id="clip0_2_12">
<rect width="194" height="175" fill="white"/>
</clipPath>
</defs>
</svg>
